# Blender 3.6.4
# www.blender.org
mtllib level1.mtl
o Cube
v 6.431535 -0.295113 -6.431535
v 6.431535 -0.295113 -6.431535
v 4.969822 -2.633853 -9.647303
v 4.969822 2.043627 -9.647303
v 9.647303 -2.633853 -4.969822
v 9.647303 2.043627 -4.969822
v 9.647303 -2.633853 -9.647303
v 9.647303 2.043627 -9.647303
v -2.338740 -2.633853 -9.647303
v -0.877027 -0.295113 -6.431535
v -0.877027 -0.295113 -6.431535
v -2.338740 2.043627 -9.647303
v 6.431535 -0.295113 0.877027
v 6.431535 -0.295113 0.877027
v 9.647303 2.043627 2.338740
v 9.647303 -2.633853 2.338740
v -6.431535 -0.295113 -6.431535
v -6.431535 -0.295113 -6.431535
v -4.969822 -2.633853 -9.647303
v -4.969822 2.043627 -9.647303
v -9.647303 -2.633853 -4.969822
v -9.647303 2.043627 -4.969822
v -9.647303 -2.633853 -9.647303
v -9.647303 2.043627 -9.647303
v 2.338740 -2.633853 -9.647303
v 0.877027 -0.295113 -6.431535
v 0.877027 -0.295113 -6.431535
v 2.338740 2.043627 -9.647303
v -6.431535 -0.295113 0.877027
v -6.431535 -0.295113 0.877027
v -9.647303 2.043627 2.338740
v -9.647303 -2.633853 2.338740
v 6.431535 -0.295113 6.431535
v 6.431535 -0.295113 6.431535
v 4.969822 -2.633853 9.647303
v 4.969822 2.043627 9.647303
v 9.647303 -2.633853 4.969822
v 9.647303 2.043627 4.969822
v 9.647303 -2.633853 9.647303
v 9.647303 2.043627 9.647303
v -2.338740 -2.633853 9.647303
v -0.877027 -0.295113 6.431535
v -0.877027 -0.295113 6.431535
v -2.338740 2.043627 9.647303
v 6.431535 -0.295113 -0.877027
v 6.431535 -0.295113 -0.877027
v 9.647303 2.043627 -2.338740
v 9.647303 -2.633853 -2.338740
v -6.431535 -0.295113 6.431535
v -6.431535 -0.295113 6.431535
v -4.969822 -2.633853 9.647303
v -4.969822 2.043627 9.647303
v -9.647303 -2.633853 4.969822
v -9.647303 2.043627 4.969822
v -9.647303 -2.633853 9.647303
v -9.647303 2.043627 9.647303
v 2.338740 -2.633853 9.647303
v 0.877027 -0.295113 6.431535
v 0.877027 -0.295113 6.431535
v 2.338740 2.043627 9.647303
v -6.431535 -0.295113 -0.877027
v -6.431535 -0.295113 -0.877027
v -9.647303 2.043627 -2.338740
v -9.647303 -2.633853 -2.338740
vn -0.0000 0.8087 0.5882
vn -0.0000 -0.0000 -1.0000
vn 1.0000 -0.0000 -0.0000
vn -0.5882 0.8087 -0.0000
vn -0.3234 -0.8893 0.3234
vn -0.3234 0.8893 0.3234
vn -0.9104 -0.0000 0.4138
vn -0.0000 -0.8087 0.5882
vn -0.0000 1.0000 -0.0000
vn -0.4138 -0.0000 0.9104
vn -0.5882 -0.8087 -0.0000
vn -1.0000 -0.0000 -0.0000
vn 0.5882 0.8087 -0.0000
vn 0.3234 -0.8893 0.3234
vn 0.3234 0.8893 0.3234
vn 0.9104 -0.0000 0.4138
vn 0.4138 -0.0000 0.9104
vn 0.5882 -0.8087 -0.0000
vn -0.0000 0.8087 -0.5882
vn -0.0000 -0.0000 1.0000
vn -0.3234 -0.8893 -0.3234
vn -0.3234 0.8893 -0.3234
vn -0.9104 -0.0000 -0.4138
vn -0.0000 -0.8087 -0.5882
vn -0.4138 -0.0000 -0.9104
vn 0.3234 -0.8893 -0.3234
vn 0.3234 0.8893 -0.3234
vn 0.9104 -0.0000 -0.4138
vn 0.4138 -0.0000 -0.9104
vt 0.875000 0.750000
vt 0.875000 0.500000
vt 0.375000 0.250000
vt 0.625000 0.250000
vt 0.625000 0.500000
vt 0.375000 0.500000
vt 0.625000 0.750000
vt 0.375000 0.750000
vt 0.125000 0.500000
vt 0.125000 0.750000
vt 0.375000 0.000000
vt 0.625000 0.000000
vt 0.375000 1.000000
vt 0.625000 1.000000
s 0
f 2/1/1 4/2/1 12/2/1 11/1/1
f 3/3/2 4/4/2 8/5/2 7/6/2
f 7/6/3 8/5/3 6/7/3 5/8/3
f 6/7/4 2/1/4 14/1/4 15/7/4
f 3/9/5 7/6/5 5/8/5 1/10/5
f 8/5/6 4/2/6 2/1/6 6/7/6
f 10/11/7 11/12/7 12/4/7 9/3/7
f 3/9/8 1/10/8 10/10/8 9/9/8
f 4/4/2 3/3/2 9/3/2 12/4/2
f 1/13/9 2/14/9 11/14/9 10/13/9
f 16/8/10 15/7/10 14/14/10 13/13/10
f 5/8/3 6/7/3 15/7/3 16/8/3
f 2/14/9 1/13/9 13/13/9 14/14/9
f 1/10/11 5/8/11 16/8/11 13/10/11
f 18/1/1 27/1/1 28/2/1 20/2/1
f 19/3/2 23/6/2 24/5/2 20/4/2
f 23/6/12 21/8/12 22/7/12 24/5/12
f 22/7/13 31/7/13 30/1/13 18/1/13
f 19/9/14 17/10/14 21/8/14 23/6/14
f 24/5/15 22/7/15 18/1/15 20/2/15
f 26/11/16 25/3/16 28/4/16 27/12/16
f 19/9/8 25/9/8 26/10/8 17/10/8
f 20/4/2 28/4/2 25/3/2 19/3/2
f 17/13/9 26/13/9 27/14/9 18/14/9
f 32/8/17 29/13/17 30/14/17 31/7/17
f 21/8/12 32/8/12 31/7/12 22/7/12
f 18/14/9 30/14/9 29/13/9 17/13/9
f 17/10/18 29/10/18 32/8/18 21/8/18
f 34/1/19 43/1/19 44/2/19 36/2/19
f 35/3/20 39/6/20 40/5/20 36/4/20
f 39/6/3 37/8/3 38/7/3 40/5/3
f 38/7/4 47/7/4 46/1/4 34/1/4
f 35/9/21 33/10/21 37/8/21 39/6/21
f 40/5/22 38/7/22 34/1/22 36/2/22
f 42/11/23 41/3/23 44/4/23 43/12/23
f 35/9/24 41/9/24 42/10/24 33/10/24
f 36/4/20 44/4/20 41/3/20 35/3/20
f 33/13/9 42/13/9 43/14/9 34/14/9
f 48/8/25 45/13/25 46/14/25 47/7/25
f 37/8/3 48/8/3 47/7/3 38/7/3
f 34/14/9 46/14/9 45/13/9 33/13/9
f 33/10/11 45/10/11 48/8/11 37/8/11
f 50/1/19 52/2/19 60/2/19 59/1/19
f 51/3/20 52/4/20 56/5/20 55/6/20
f 55/6/12 56/5/12 54/7/12 53/8/12
f 54/7/13 50/1/13 62/1/13 63/7/13
f 51/9/26 55/6/26 53/8/26 49/10/26
f 56/5/27 52/2/27 50/1/27 54/7/27
f 58/11/28 59/12/28 60/4/28 57/3/28
f 51/9/24 49/10/24 58/10/24 57/9/24
f 52/4/20 51/3/20 57/3/20 60/4/20
f 49/13/9 50/14/9 59/14/9 58/13/9
f 64/8/29 63/7/29 62/14/29 61/13/29
f 53/8/12 54/7/12 63/7/12 64/8/12
f 50/14/9 49/13/9 61/13/9 62/14/9
f 49/10/18 53/8/18 64/8/18 61/10/18
o Plane
v -7.162765 0.000000 7.162765
v 7.162765 0.000000 7.162765
v -7.162765 0.000000 -7.162765
v 7.162765 0.000000 -7.162765
vn -0.0000 1.0000 -0.0000
vt 0.000000 0.000000
vt 1.000000 0.000000
vt 1.000000 1.000000
vt 0.000000 1.000000
s 0
f 65/15/30 66/16/30 68/17/30 67/18/30
o Cube.001
v 3.000001 0.000000 -10.124226
v 3.000001 0.000000 -10.124226
v 1.000001 0.000000 -10.124226
v 1.000001 0.000000 -10.124226
v 3.000000 2.218657 -4.017909
v 3.000000 -2.218657 -4.017909
v 1.000000 2.218657 -4.017910
v 1.000001 -2.218657 -4.017910
v -10.124226 0.000000 3.000001
v -10.124226 0.000000 3.000001
v -10.124226 0.000000 1.000001
v -10.124226 0.000000 1.000001
v -4.017909 2.218657 3.000000
v -4.017909 -2.218657 3.000000
v -4.017910 2.218657 1.000000
v -4.017910 -2.218657 1.000001
v 10.124226 0.000000 -3.000001
v 10.124226 0.000000 -3.000001
v 10.124226 0.000000 -1.000001
v 10.124226 0.000000 -1.000001
v 4.017909 2.218657 -3.000000
v 4.017909 -2.218657 -3.000000
v 4.017910 2.218657 -1.000000
v 4.017910 -2.218657 -1.000001
v -3.000001 0.000000 10.124226
v -3.000001 0.000000 10.124226
v -1.000001 0.000000 10.124226
v -1.000001 0.000000 10.124226
v -3.000000 2.218657 4.017909
v -3.000000 -2.218657 4.017909
v -1.000000 2.218657 4.017910
v -1.000001 -2.218657 4.017910
vn -0.0000 1.0000 -0.0000
vn -1.0000 -0.0000 -0.0000
vn -0.0000 -0.0000 1.0000
vn 1.0000 -0.0000 -0.0000
vn -0.0000 0.9399 -0.3415
vn -0.0000 -0.9399 -0.3415
vn -0.0000 -0.0000 -1.0000
vn -0.3415 0.9399 -0.0000
vn -0.3415 -0.9399 -0.0000
vn 0.3415 0.9399 -0.0000
vn 0.3415 -0.9399 -0.0000
vn -0.0000 0.9399 0.3415
vn -0.0000 -0.9399 0.3415
vt 0.375000 0.000000
vt 0.625000 0.000000
vt 0.625000 0.250000
vt 0.375000 0.250000
vt 0.625000 0.500000
vt 0.375000 0.500000
vt 0.625000 0.750000
vt 0.375000 0.750000
vt 0.625000 1.000000
vt 0.375000 1.000000
vt 0.125000 0.500000
vt 0.125000 0.750000
vt 0.875000 0.500000
vt 0.875000 0.750000
s 0
f 69/19/31 70/20/31 72/21/31 71/22/31
f 71/22/32 72/21/32 76/23/32 75/24/32
f 75/24/33 76/23/33 74/25/33 73/26/33
f 73/26/34 74/25/34 70/27/34 69/28/34
f 71/29/35 75/24/35 73/26/35 69/30/35
f 76/23/36 72/31/36 70/32/36 74/25/36
f 77/19/31 79/22/31 80/21/31 78/20/31
f 79/22/37 83/24/37 84/23/37 80/21/37
f 83/24/34 81/26/34 82/25/34 84/23/34
f 81/26/33 77/28/33 78/27/33 82/25/33
f 79/29/38 77/30/38 81/26/38 83/24/38
f 84/23/39 82/25/39 78/32/39 80/31/39
f 85/19/31 87/22/31 88/21/31 86/20/31
f 87/22/33 91/24/33 92/23/33 88/21/33
f 91/24/32 89/26/32 90/25/32 92/23/32
f 89/26/37 85/28/37 86/27/37 90/25/37
f 87/29/40 85/30/40 89/26/40 91/24/40
f 92/23/41 90/25/41 86/32/41 88/31/41
f 93/19/31 94/20/31 96/21/31 95/22/31
f 95/22/34 96/21/34 100/23/34 99/24/34
f 99/24/37 100/23/37 98/25/37 97/26/37
f 97/26/32 98/25/32 94/27/32 93/28/32
f 95/29/42 99/24/42 97/26/42 93/30/42
f 100/23/43 96/31/43 94/32/43 98/25/43
o Cube.002
v -3.000001 0.000000 -10.124226
v -3.000001 0.000000 -10.124226
v -1.000001 0.000000 -10.124225
v -1.000001 0.000000 -10.124225
v -3.000000 -2.218657 -4.017909
v -3.000000 2.218657 -4.017909
v -1.000000 -2.218657 -4.017910
v -1.000000 2.218657 -4.017910
v -10.124226 0.000000 -3.000001
v -10.124226 0.000000 -3.000001
v -10.124225 0.000000 -1.000001
v -10.124225 0.000000 -1.000001
v -4.017909 -2.218657 -3.000000
v -4.017909 2.218657 -3.000000
v -4.017910 -2.218657 -1.000000
v -4.017910 2.218657 -1.000000
v 10.124226 0.000000 3.000001
v 10.124226 0.000000 3.000001
v 10.124225 0.000000 1.000001
v 10.124225 0.000000 1.000001
v 4.017909 -2.218657 3.000000
v 4.017909 2.218657 3.000000
v 4.017910 -2.218657 1.000000
v 4.017910 2.218657 1.000000
v 3.000001 0.000000 10.124226
v 3.000001 0.000000 10.124226
v 1.000001 0.000000 10.124225
v 1.000001 0.000000 10.124225
v 3.000000 -2.218657 4.017909
v 3.000000 2.218657 4.017909
v 1.000000 -2.218657 4.017910
v 1.000000 2.218657 4.017910
vn -0.0000 1.0000 -0.0000
vn 1.0000 -0.0000 -0.0000
vn -0.0000 -0.0000 1.0000
vn -1.0000 -0.0000 -0.0000
vn -0.0000 -0.9399 -0.3415
vn -0.0000 0.9399 -0.3415
vn -0.0000 -0.0000 -1.0000
vn -0.3415 -0.9399 -0.0000
vn -0.3415 0.9399 -0.0000
vn 0.3415 -0.9399 -0.0000
vn 0.3415 0.9399 -0.0000
vn -0.0000 -0.9399 0.3415
vn -0.0000 0.9399 0.3415
vt 0.375000 0.000000
vt 0.625000 0.000000
vt 0.625000 0.250000
vt 0.375000 0.250000
vt 0.625000 0.500000
vt 0.375000 0.500000
vt 0.625000 0.750000
vt 0.375000 0.750000
vt 0.625000 1.000000
vt 0.375000 1.000000
vt 0.125000 0.500000
vt 0.125000 0.750000
vt 0.875000 0.500000
vt 0.875000 0.750000
s 0
f 101/33/44 102/34/44 104/35/44 103/36/44
f 103/36/45 104/35/45 108/37/45 107/38/45
f 107/38/46 108/37/46 106/39/46 105/40/46
f 105/40/47 106/39/47 102/41/47 101/42/47
f 103/43/48 107/38/48 105/40/48 101/44/48
f 108/37/49 104/45/49 102/46/49 106/39/49
f 109/33/44 111/36/44 112/35/44 110/34/44
f 111/36/46 115/38/46 116/37/46 112/35/46
f 115/38/45 113/40/45 114/39/45 116/37/45
f 113/40/50 109/42/50 110/41/50 114/39/50
f 111/43/51 109/44/51 113/40/51 115/38/51
f 116/37/52 114/39/52 110/46/52 112/45/52
f 117/33/44 119/36/44 120/35/44 118/34/44
f 119/36/50 123/38/50 124/37/50 120/35/50
f 123/38/47 121/40/47 122/39/47 124/37/47
f 121/40/46 117/42/46 118/41/46 122/39/46
f 119/43/53 117/44/53 121/40/53 123/38/53
f 124/37/54 122/39/54 118/46/54 120/45/54
f 125/33/44 126/34/44 128/35/44 127/36/44
f 127/36/47 128/35/47 132/37/47 131/38/47
f 131/38/50 132/37/50 130/39/50 129/40/50
f 129/40/45 130/39/45 126/41/45 125/42/45
f 127/43/55 131/38/55 129/40/55 125/44/55
f 132/37/56 128/45/56 126/46/56 130/39/56
o Cube.003
v 1.000000 0.000000 -4.017909
v 1.000000 0.000000 -4.017909
v -1.000000 0.000000 -4.017909
v -1.000000 0.000000 -4.017909
v 1.000000 -2.218657 -10.124226
v 1.000000 2.218657 -10.124226
v -1.000000 -2.218657 -10.124224
v -1.000000 2.218657 -10.124224
v -4.017909 0.000000 1.000000
v -4.017909 0.000000 1.000000
v -4.017909 0.000000 -1.000000
v -4.017909 0.000000 -1.000000
v -10.124226 -2.218657 1.000000
v -10.124226 2.218657 1.000000
v -10.124224 -2.218657 -1.000000
v -10.124224 2.218657 -1.000000
v 4.017909 0.000000 -1.000000
v 4.017909 0.000000 -1.000000
v 4.017909 0.000000 1.000000
v 4.017909 0.000000 1.000000
v 10.124226 -2.218657 -1.000000
v 10.124226 2.218657 -1.000000
v 10.124224 -2.218657 1.000000
v 10.124224 2.218657 1.000000
v -1.000000 0.000000 4.017909
v -1.000000 0.000000 4.017909
v 1.000000 0.000000 4.017909
v 1.000000 0.000000 4.017909
v -1.000000 -2.218657 10.124226
v -1.000000 2.218657 10.124226
v 1.000000 -2.218657 10.124224
v 1.000000 2.218657 10.124224
vn -0.0000 1.0000 -0.0000
vn -1.0000 -0.0000 -0.0000
vn -0.0000 -0.0000 -1.0000
vn 1.0000 -0.0000 -0.0000
vn -0.0000 -0.9399 0.3415
vn -0.0000 0.9399 0.3415
vn -0.0000 -0.0000 1.0000
vn 0.3415 -0.9399 -0.0000
vn 0.3415 0.9399 -0.0000
vn -0.3415 -0.9399 -0.0000
vn -0.3415 0.9399 -0.0000
vn -0.0000 -0.9399 -0.3415
vn -0.0000 0.9399 -0.3415
vt 0.375000 0.000000
vt 0.625000 0.000000
vt 0.625000 0.250000
vt 0.375000 0.250000
vt 0.625000 0.500000
vt 0.375000 0.500000
vt 0.625000 0.750000
vt 0.375000 0.750000
vt 0.625000 1.000000
vt 0.375000 1.000000
vt 0.125000 0.500000
vt 0.125000 0.750000
vt 0.875000 0.500000
vt 0.875000 0.750000
s 0
f 133/47/57 134/48/57 136/49/57 135/50/57
f 135/50/58 136/49/58 140/51/58 139/52/58
f 139/52/59 140/51/59 138/53/59 137/54/59
f 137/54/60 138/53/60 134/55/60 133/56/60
f 135/57/61 139/52/61 137/54/61 133/58/61
f 140/51/62 136/59/62 134/60/62 138/53/62
f 141/47/57 143/50/57 144/49/57 142/48/57
f 143/50/59 147/52/59 148/51/59 144/49/59
f 147/52/58 145/54/58 146/53/58 148/51/58
f 145/54/63 141/56/63 142/55/63 146/53/63
f 143/57/64 141/58/64 145/54/64 147/52/64
f 148/51/65 146/53/65 142/60/65 144/59/65
f 149/47/57 151/50/57 152/49/57 150/48/57
f 151/50/63 155/52/63 156/51/63 152/49/63
f 155/52/60 153/54/60 154/53/60 156/51/60
f 153/54/59 149/56/59 150/55/59 154/53/59
f 151/57/66 149/58/66 153/54/66 155/52/66
f 156/51/67 154/53/67 150/60/67 152/59/67
f 157/47/57 158/48/57 160/49/57 159/50/57
f 159/50/60 160/49/60 164/51/60 163/52/60
f 163/52/63 164/51/63 162/53/63 161/54/63
f 161/54/58 162/53/58 158/55/58 157/56/58
f 159/57/68 163/52/68 161/54/68 157/58/68
f 164/51/69 160/59/69 158/60/69 162/53/69
o Cube.004
v -4.020463 2.154500 4.020463
v -4.020463 2.224387 4.020463
v -4.020463 2.154500 -4.020463
v -4.020463 2.224387 -4.020463
v 4.020463 2.154500 4.020463
v 4.020463 2.224387 4.020463
v 4.020463 2.154500 -4.020463
v 4.020463 2.224387 -4.020463
v -1.000000 2.154500 -1.000000
v 1.000000 2.154500 -1.000000
v 1.000000 2.154500 1.000000
v -1.000000 2.154500 1.000000
v -1.000000 2.224387 1.000000
v 1.000000 2.224387 -1.000000
v -1.000000 2.224387 -1.000000
v 1.000000 2.224387 1.000000
vn -1.0000 -0.0000 -0.0000
vn -0.0000 -0.0000 -1.0000
vn 1.0000 -0.0000 -0.0000
vn -0.0000 -0.0000 1.0000
vn -0.0000 -1.0000 -0.0000
vn -0.0000 1.0000 -0.0000
vt 0.375000 0.000000
vt 0.625000 0.000000
vt 0.625000 0.250000
vt 0.375000 0.250000
vt 0.625000 0.500000
vt 0.375000 0.500000
vt 0.625000 0.750000
vt 0.375000 0.750000
vt 0.625000 1.000000
vt 0.375000 1.000000
vt 0.218909 0.656091
vt 0.125000 0.750000
vt 0.125000 0.500000
vt 0.281091 0.656091
vt 0.281091 0.593909
vt 0.218909 0.593909
vt 0.875000 0.500000
vt 0.875000 0.750000
vt 0.718909 0.656091
vt 0.781091 0.656091
vt 0.781091 0.593909
vt 0.718909 0.593909
vt 0.577640 0.000000
vt 0.575200 0.000000
vt 0.575200 0.250000
vt 0.577640 0.250000
vt 0.575200 0.500000
vt 0.577640 0.500000
vt 0.575200 0.750000
vt 0.577640 0.750000
vt 0.575200 1.000000
vt 0.577640 1.000000
s 0
f 165/61/70 166/62/70 168/63/70 167/64/70
f 167/64/71 168/63/71 172/65/71 171/66/71
f 171/66/72 172/65/72 170/67/72 169/68/72
f 169/68/73 170/67/73 166/69/73 165/70/73
f 176/71/74 165/72/74 167/73/74 171/66/74 169/68/74 175/74/74 174/75/74 173/76/74
f 169/68/74 165/72/74 176/71/74 175/74/74
f 168/77/75 166/78/75 170/67/75 180/79/75 177/80/75 179/81/75
f 170/67/75 172/65/75 168/77/75 179/81/75 178/82/75 180/79/75
f 177/83/72 176/84/72 173/85/72 179/86/72
f 179/86/73 173/85/73 174/87/73 178/88/73
f 174/87/70 175/89/70 180/90/70 178/88/70
f 175/89/71 176/91/71 177/92/71 180/90/71
